<?xml version="1.0" encoding="utf-8"?>
<!-- Generator: Adobe Illustrator 23.0.1, SVG Export Plug-In . SVG Version: 6.00 Build 0)  -->
<svg version="1.1" id="Layer_1" xmlns="http://www.w3.org/2000/svg" xmlns:xlink="http://www.w3.org/1999/xlink" x="0px" y="0px"
	 viewBox="0 0 450.3 69" style="enable-background:new 0 0 450.3 69;" xml:space="preserve">
<style type="text/css">
	.st0{fill:#FFFFFF;}
	.st1{fill:#144E8B;}
	.st2{fill:#034EA2;}
	.st3{fill:#FBED21;}
	.st4{fill:url(#SVGID_1_);}
	.st5{fill:url(#SVGID_2_);}
	.st6{fill:url(#SVGID_3_);}
	.st7{fill:#00BDDE;}
	.st8{fill:#034EA1;}
	.st9{fill:#FFF100;}
	.st10{fill-rule:evenodd;clip-rule:evenodd;fill:#034EA1;}
</style>
<g>
	<rect x="0.1" y="0.8" class="st0" width="99.5" height="67.6"/>
	<path class="st0" d="M49.8,35.2"/>
	<rect x="2" y="2.7" class="st1" width="95.7" height="63.8"/>
	<path class="st2" d="M49.8,34.6"/>
	<polyline class="st3" points="47.8,16.6 49.8,15.1 51.8,16.6 51,14.2 53.1,12.7 50.6,12.7 49.8,10.3 49,12.7 46.5,12.7 48.5,14.2 
		47.8,16.6 	"/>
	<polyline class="st3" points="37.3,19.4 39.3,17.9 41.4,19.4 40.6,17 42.6,15.5 40.1,15.5 39.3,13.1 38.6,15.5 36,15.5 38.1,17 
		37.3,19.4 	"/>
	<polyline class="st3" points="31.7,20.8 30.9,23.2 28.4,23.2 30.5,24.7 29.7,27 31.7,25.6 33.7,27 33,24.7 35,23.2 32.5,23.2 
		31.7,20.8 	"/>
	<polyline class="st3" points="28.9,36 30.9,37.5 30.1,35.1 32.2,33.6 29.7,33.6 28.9,31.2 28.1,33.6 25.6,33.6 27.6,35.1 
		26.9,37.5 28.9,36 	"/>
	<polyline class="st3" points="32.5,44.1 31.7,41.7 30.9,44.1 28.4,44.1 30.5,45.6 29.7,47.9 31.7,46.5 33.7,47.9 33,45.6 35,44.1 
		32.5,44.1 	"/>
	<polyline class="st3" points="40.1,51.7 39.4,49.3 38.6,51.7 36.1,51.7 38.1,53.2 37.3,55.6 39.4,54.1 41.4,55.6 40.6,53.2 
		42.7,51.7 40.1,51.7 	"/>
	<polyline class="st3" points="50.6,54.5 49.8,52.1 49,54.5 46.5,54.5 48.5,56 47.8,58.4 49.8,56.9 51.8,58.4 51,56 53.1,54.5 
		50.6,54.5 	"/>
	<polyline class="st3" points="61,51.7 60.2,49.3 59.5,51.7 56.9,51.7 59,53.2 58.2,55.6 60.2,54.1 62.2,55.6 61.5,53.2 63.5,51.7 
		61,51.7 	"/>
	<polyline class="st3" points="68.7,44.1 67.9,41.7 67.1,44.1 64.6,44.1 66.6,45.6 65.9,47.9 67.9,46.5 69.9,47.9 69.1,45.6 
		71.2,44.1 68.7,44.1 	"/>
	<polyline class="st3" points="74,33.6 71.4,33.6 70.7,31.2 69.9,33.6 67.4,33.6 69.4,35.1 68.6,37.4 70.7,36 72.7,37.4 71.9,35.1 
		74,33.6 	"/>
	<polyline class="st3" points="65.9,27 67.9,25.5 69.9,27 69.1,24.6 71.2,23.2 68.7,23.2 67.9,20.7 67.1,23.2 64.6,23.2 66.6,24.6 
		65.9,27 	"/>
	<polyline class="st3" points="60.3,13.1 59.5,15.5 57,15.5 59,17 58.2,19.4 60.3,17.9 62.3,19.4 61.5,17 63.6,15.5 61,15.5 
		60.3,13.1 	"/>
</g>
<g>
	<g>
		<path class="st1" d="M388.2,9.9v3.2h6.3v4.1h-6.3v3.3h6.6v4.2h-11.5V5.8h11.5v4.1H388.2z"/>
		<path class="st1" d="M410.2,5.8v4.1h-5.6l3.2,5.2l-3.4,5.5h6v4.2H396l6-9.7l-5.8-9.3H410.2z"/>
		<path class="st1" d="M429.3,24.7h-4.9V9.9h-6.6v14.8h-4.9V5.8h16.4V24.7z"/>
		<path class="st1" d="M436.8,21.4l-1.3,3.3h-5.2l7.3-18.9h5.3l7.1,18.9h-5.2l-1.2-3.3H436.8z M440.3,11.6L440.3,11.6l-2,6h4.1
			L440.3,11.6z"/>
	</g>
	<polygon class="st1" points="438,63.5 354.1,63.5 354.1,47.7 443.9,47.7 	"/>
	<g>
		<linearGradient id="SVGID_1_" gradientUnits="userSpaceOnUse" x1="380.4593" y1="11.7149" x2="354.0849" y2="11.7149">
			<stop  offset="1.100000e-07" style="stop-color:#00BDDE;stop-opacity:0.2"/>
			<stop  offset="1" style="stop-color:#00BDDE"/>
		</linearGradient>
		<path class="st4" d="M380.5,5.8c-4.4,0.1-7.4,2.6-10.3,4.9c-4,3.3-8.1,4.9-16.1,1.5v3.7c9.8,3.7,14.1,0.9,18.3-2.5
			c2.6-2.1,4.6-3.9,8.1-4.1V5.8z"/>
		<linearGradient id="SVGID_2_" gradientUnits="userSpaceOnUse" x1="380.4593" y1="18.1623" x2="354.0849" y2="18.1623">
			<stop  offset="0" style="stop-color:#EBF4E3"/>
			<stop  offset="0.176" style="stop-color:#D1E8BF"/>
			<stop  offset="0.4422" style="stop-color:#AED88F"/>
			<stop  offset="0.6768" style="stop-color:#94CC6B"/>
			<stop  offset="0.8682" style="stop-color:#85C556"/>
			<stop  offset="0.9927" style="stop-color:#7FC24E"/>
		</linearGradient>
		<path class="st5" d="M380.5,12.2c-4.4,0.1-7,2.6-9.9,4.9c-4,3.3-8.5,4.9-16.5,1.5v3.7c9.8,3.7,14.5,0.9,18.7-2.5
			c2.6-2.1,4.2-3.9,7.7-4.1V12.2z"/>
		<linearGradient id="SVGID_3_" gradientUnits="userSpaceOnUse" x1="380.4593" y1="25.1085" x2="354.0849" y2="25.1085">
			<stop  offset="0" style="stop-color:#DEDBED"/>
			<stop  offset="9.396514e-02" style="stop-color:#C3C8E0"/>
			<stop  offset="0.3316" style="stop-color:#869DC2"/>
			<stop  offset="0.549" style="stop-color:#557BAA"/>
			<stop  offset="0.7388" style="stop-color:#316399"/>
			<stop  offset="0.8937" style="stop-color:#1C538F"/>
			<stop  offset="0.9944" style="stop-color:#144E8B"/>
		</linearGradient>
		<path class="st6" d="M380.5,19.2c-4.4,0.1-7,2.6-9.9,4.9c-4,3.3-8.5,4.9-16.5,1.5v3.7c9.8,3.7,14.5,0.9,18.7-2.5
			c2.6-2.1,4.2-3.9,7.7-4.1V19.2z"/>
	</g>
	<g>
		<g>
			<path class="st7" d="M389.9,40.9v2.7h-7.1l3.6-5.4c0.1-0.2,0.3-0.4,0.4-0.6c0.1-0.2,0.2-0.5,0.3-0.7c0.1-0.3,0.2-0.5,0.2-0.8
				c0.1-0.3,0.1-0.5,0.1-0.8c0-0.2,0-0.4-0.1-0.6c0-0.2-0.1-0.4-0.2-0.5c-0.1-0.1-0.2-0.3-0.3-0.4c-0.1-0.1-0.3-0.1-0.4-0.1
				c-0.3,0-0.5,0.1-0.7,0.4c-0.2,0.3-0.2,0.6-0.2,1c0,0.2,0,0.3,0,0.5H383c0-0.7,0.1-1.3,0.3-1.9c0.2-0.6,0.4-1.1,0.7-1.5
				c0.3-0.4,0.6-0.7,1.1-1c0.4-0.2,0.9-0.3,1.4-0.3c0.5,0,0.9,0.1,1.3,0.3c0.4,0.2,0.8,0.5,1.1,0.9c0.3,0.4,0.6,0.8,0.7,1.4
				c0.2,0.5,0.3,1.1,0.3,1.8c0,0.4,0,0.8-0.1,1.2c-0.1,0.4-0.2,0.7-0.3,1c-0.1,0.3-0.3,0.6-0.4,0.9c-0.2,0.3-0.4,0.6-0.6,0.8
				l-1.4,1.7H389.9z"/>
			<path class="st7" d="M394.3,31c0.7,0,1.2,0.2,1.7,0.6c0.5,0.4,0.9,0.9,1.2,1.5c0.3,0.6,0.5,1.3,0.7,2.1c0.1,0.8,0.2,1.6,0.2,2.4
				c0,0.8-0.1,1.6-0.2,2.3c-0.1,0.8-0.4,1.5-0.7,2.1c-0.3,0.6-0.7,1.1-1.2,1.5c-0.5,0.4-1,0.6-1.7,0.6c-0.7,0-1.2-0.2-1.7-0.6
				c-0.5-0.4-0.9-0.9-1.2-1.5c-0.3-0.6-0.5-1.3-0.7-2.1c-0.1-0.8-0.2-1.6-0.2-2.3c0-0.8,0.1-1.6,0.2-2.4c0.1-0.8,0.4-1.5,0.7-2.1
				c0.3-0.6,0.7-1.1,1.2-1.5C393.1,31.2,393.7,31,394.3,31z M394.3,33.8c-0.3,0-0.5,0.1-0.7,0.4c-0.2,0.3-0.3,0.6-0.5,1
				c-0.1,0.4-0.2,0.8-0.2,1.2c0,0.4-0.1,0.8-0.1,1.1c0,0.3,0,0.7,0.1,1.1c0,0.4,0.1,0.8,0.2,1.2c0.1,0.4,0.3,0.7,0.5,1
				c0.2,0.3,0.4,0.4,0.7,0.4c0.3,0,0.5-0.1,0.7-0.4c0.2-0.3,0.3-0.6,0.4-1c0.1-0.4,0.2-0.8,0.2-1.2s0.1-0.8,0.1-1.1
				c0-0.3,0-0.7-0.1-1.1c0-0.4-0.1-0.8-0.2-1.2c-0.1-0.4-0.3-0.7-0.4-1C394.8,33.9,394.6,33.8,394.3,33.8z"/>
			<path class="st7" d="M405.6,40.9v2.7h-7.1l3.6-5.4c0.1-0.2,0.3-0.4,0.4-0.6c0.1-0.2,0.2-0.5,0.3-0.7c0.1-0.3,0.2-0.5,0.2-0.8
				c0.1-0.3,0.1-0.5,0.1-0.8c0-0.2,0-0.4-0.1-0.6c0-0.2-0.1-0.4-0.2-0.5c-0.1-0.1-0.2-0.3-0.3-0.4c-0.1-0.1-0.3-0.1-0.4-0.1
				c-0.3,0-0.5,0.1-0.7,0.4c-0.2,0.3-0.2,0.6-0.2,1c0,0.2,0,0.3,0,0.5h-2.5c0-0.7,0.1-1.3,0.3-1.9c0.2-0.6,0.4-1.1,0.7-1.5
				c0.3-0.4,0.6-0.7,1.1-1c0.4-0.2,0.9-0.3,1.4-0.3c0.5,0,0.9,0.1,1.3,0.3c0.4,0.2,0.8,0.5,1.1,0.9c0.3,0.4,0.6,0.8,0.7,1.4
				c0.2,0.5,0.3,1.1,0.3,1.8c0,0.4,0,0.8-0.1,1.2c-0.1,0.4-0.2,0.7-0.3,1c-0.1,0.3-0.3,0.6-0.4,0.9c-0.2,0.3-0.4,0.6-0.6,0.8
				l-1.4,1.7H405.6z"/>
			<path class="st7" d="M407.9,34.2v-2.6h3.6v12.1h-2.3v-9.4H407.9z"/>
			<path class="st7" d="M417.8,37.3v2.4h-3.4v-2.4H417.8z"/>
			<path class="st7" d="M425.8,40.9v2.7h-7.1l3.6-5.4c0.1-0.2,0.3-0.4,0.4-0.6c0.1-0.2,0.2-0.5,0.3-0.7c0.1-0.3,0.2-0.5,0.2-0.8
				c0.1-0.3,0.1-0.5,0.1-0.8c0-0.2,0-0.4-0.1-0.6c0-0.2-0.1-0.4-0.2-0.5c-0.1-0.1-0.2-0.3-0.3-0.4c-0.1-0.1-0.3-0.1-0.4-0.1
				c-0.3,0-0.5,0.1-0.7,0.4c-0.2,0.3-0.2,0.6-0.2,1c0,0.2,0,0.3,0,0.5h-2.5c0-0.7,0.1-1.3,0.3-1.9c0.2-0.6,0.4-1.1,0.7-1.5
				c0.3-0.4,0.6-0.7,1.1-1c0.4-0.2,0.9-0.3,1.4-0.3c0.5,0,0.9,0.1,1.3,0.3c0.4,0.2,0.8,0.5,1.1,0.9c0.3,0.4,0.6,0.8,0.7,1.4
				c0.2,0.5,0.3,1.1,0.3,1.8c0,0.4,0,0.8-0.1,1.2c-0.1,0.4-0.2,0.7-0.3,1c-0.1,0.3-0.3,0.6-0.4,0.9c-0.2,0.3-0.4,0.6-0.6,0.8
				l-1.4,1.7H425.8z"/>
			<path class="st7" d="M430.1,31c0.7,0,1.2,0.2,1.7,0.6c0.5,0.4,0.9,0.9,1.2,1.5c0.3,0.6,0.5,1.3,0.7,2.1c0.1,0.8,0.2,1.6,0.2,2.4
				c0,0.8-0.1,1.6-0.2,2.3c-0.1,0.8-0.4,1.5-0.7,2.1c-0.3,0.6-0.7,1.1-1.2,1.5c-0.5,0.4-1,0.6-1.7,0.6c-0.7,0-1.2-0.2-1.7-0.6
				c-0.5-0.4-0.9-0.9-1.2-1.5c-0.3-0.6-0.5-1.3-0.7-2.1c-0.1-0.8-0.2-1.6-0.2-2.3c0-0.8,0.1-1.6,0.2-2.4c0.1-0.8,0.4-1.5,0.7-2.1
				c0.3-0.6,0.7-1.1,1.2-1.5C428.9,31.2,429.5,31,430.1,31z M430.1,33.8c-0.3,0-0.5,0.1-0.7,0.4c-0.2,0.3-0.3,0.6-0.5,1
				c-0.1,0.4-0.2,0.8-0.2,1.2c0,0.4-0.1,0.8-0.1,1.1c0,0.3,0,0.7,0.1,1.1c0,0.4,0.1,0.8,0.2,1.2c0.1,0.4,0.3,0.7,0.5,1
				c0.2,0.3,0.4,0.4,0.7,0.4c0.3,0,0.5-0.1,0.7-0.4c0.2-0.3,0.3-0.6,0.4-1c0.1-0.4,0.2-0.8,0.2-1.2c0-0.4,0.1-0.8,0.1-1.1
				c0-0.3,0-0.7-0.1-1.1c0-0.4-0.1-0.8-0.2-1.2c-0.1-0.4-0.3-0.7-0.4-1C430.7,33.9,430.4,33.8,430.1,33.8z"/>
			<path class="st7" d="M441.5,40.9v2.7h-7.1l3.6-5.4c0.1-0.2,0.3-0.4,0.4-0.6c0.1-0.2,0.2-0.5,0.3-0.7c0.1-0.3,0.2-0.5,0.2-0.8
				c0.1-0.3,0.1-0.5,0.1-0.8c0-0.2,0-0.4-0.1-0.6c0-0.2-0.1-0.4-0.2-0.5c-0.1-0.1-0.2-0.3-0.3-0.4c-0.1-0.1-0.3-0.1-0.4-0.1
				c-0.3,0-0.5,0.1-0.7,0.4c-0.2,0.3-0.2,0.6-0.2,1c0,0.2,0,0.3,0,0.5h-2.5c0-0.7,0.1-1.3,0.3-1.9c0.2-0.6,0.4-1.1,0.7-1.5
				c0.3-0.4,0.6-0.7,1.1-1c0.4-0.2,0.9-0.3,1.4-0.3c0.5,0,0.9,0.1,1.3,0.3c0.4,0.2,0.8,0.5,1.1,0.9c0.3,0.4,0.6,0.8,0.7,1.4
				c0.2,0.5,0.3,1.1,0.3,1.8c0,0.4,0,0.8-0.1,1.2c-0.1,0.4-0.2,0.7-0.3,1c-0.1,0.3-0.3,0.6-0.4,0.9c-0.2,0.3-0.4,0.6-0.6,0.8
				l-1.4,1.7H441.5z"/>
		</g>
		<g>
			<path class="st7" d="M442.8,34.2v-2.6h7.3l-4.5,12.1H443l3.5-9.4H442.8z"/>
		</g>
	</g>
	<g>
		<rect x="368.1" y="35.4" class="st8" width="12.3" height="8.2"/>
		<g>
			<polyline class="st9" points="374.3,36.4 374.4,36.7 374.7,36.7 374.4,36.9 374.5,37.2 374.3,37 374,37.2 374.1,36.9 373.9,36.7 
				374.2,36.7 374.3,36.4 			"/>
			<polyline class="st9" points="372.9,36.7 373,37 373.3,37 373.1,37.2 373.2,37.5 372.9,37.3 372.7,37.5 372.8,37.2 372.5,37 
				372.8,37 372.9,36.7 			"/>
			<polyline class="st9" points="371.9,37.7 372.1,38 372.4,38 372.1,38.2 372.2,38.5 371.9,38.3 371.7,38.5 371.8,38.2 371.5,38 
				371.8,38 371.9,37.7 			"/>
			<polyline class="st9" points="371.6,39.1 371.7,39.4 372,39.4 371.8,39.6 371.8,39.9 371.6,39.7 371.3,39.9 371.4,39.6 
				371.2,39.4 371.5,39.4 371.6,39.1 			"/>
			<polyline class="st9" points="371.9,40.5 372.1,40.8 372.4,40.8 372.1,41 372.2,41.3 371.9,41.1 371.7,41.3 371.8,41 371.5,40.8 
				371.8,40.8 371.9,40.5 			"/>
			<polyline class="st9" points="372.9,41.5 373,41.8 373.3,41.8 373.1,42 373.2,42.3 372.9,42.1 372.7,42.3 372.8,42 372.5,41.8 
				372.8,41.8 372.9,41.5 			"/>
			<polyline class="st9" points="374.3,41.8 374.4,42.2 374.7,42.2 374.4,42.3 374.5,42.7 374.3,42.5 374,42.7 374.1,42.3 
				373.9,42.2 374.2,42.2 374.3,41.8 			"/>
			<polyline class="st9" points="375.6,41.5 375.7,41.8 376,41.8 375.8,42 375.8,42.3 375.6,42.1 375.3,42.3 375.4,42 375.2,41.8 
				375.5,41.8 375.6,41.5 			"/>
			<polyline class="st9" points="376.6,40.5 376.7,40.8 377,40.8 376.7,41 376.8,41.3 376.6,41.1 376.3,41.3 376.4,41 376.2,40.8 
				376.5,40.8 376.6,40.5 			"/>
			<polyline class="st9" points="376.9,39.1 377,39.4 377.3,39.4 377.1,39.6 377.2,39.9 376.9,39.7 376.7,39.9 376.8,39.6 
				376.5,39.4 376.8,39.4 376.9,39.1 			"/>
			<polyline class="st9" points="376.6,37.7 376.7,38 377,38 376.7,38.2 376.8,38.5 376.6,38.3 376.3,38.5 376.4,38.2 376.2,38 
				376.5,38 376.6,37.7 			"/>
			<polyline class="st9" points="375.6,36.7 375.7,37 376,37 375.8,37.2 375.8,37.5 375.6,37.3 375.3,37.5 375.4,37.2 375.2,37 
				375.5,37 375.6,36.7 			"/>
		</g>
		<g>
			<g>
				<g>
					<g>
						<g>
							<rect x="354.1" y="40.9" class="st10" width="12.2" height="0.9"/>
							<rect x="354.1" y="42.7" class="st10" width="12.2" height="0.9"/>
						</g>
						<g>
							<polygon class="st10" points="356.2,35.4 354.1,35.4 354.1,36.3 354.1,37.2 356.2,37.2 							"/>
							<polygon class="st10" points="366.3,36.3 366.3,35.4 359.2,35.4 357.2,35.4 357.2,37.2 359.2,37.2 359.2,38.1 357.2,38.1 
								357.2,39.9 359.2,39.9 359.2,39.9 366.3,39.9 366.3,39 359.2,39 359.2,38.1 366.3,38.1 366.3,37.2 359.2,37.2 359.2,36.3 
															"/>
							<polygon class="st10" points="356.2,38.1 354.1,38.1 354.1,38.1 354.1,39 354.1,39.9 354.1,39.9 356.2,39.9 							"/>
						</g>
					</g>
				</g>
			</g>
		</g>
	</g>
	<g>
		<g>
			<path class="st0" d="M356.8,56.8v-4h1.5c0.2,0,0.3,0,0.5,0.1c0.1,0,0.3,0.1,0.4,0.2c0.1,0.1,0.2,0.2,0.2,0.3
				c0.1,0.1,0.1,0.3,0.1,0.5c0,0.2,0,0.3-0.1,0.5c-0.1,0.1-0.2,0.3-0.3,0.3v0c0.3,0,0.5,0.2,0.6,0.3c0.1,0.2,0.2,0.4,0.2,0.7
				c0,0.2,0,0.4-0.1,0.5c-0.1,0.1-0.2,0.3-0.3,0.3c-0.1,0.1-0.3,0.2-0.5,0.2c-0.2,0-0.4,0.1-0.5,0.1H356.8z M357.9,54.3h0.1
				c0.1,0,0.1,0,0.2,0c0.1,0,0.1,0,0.2-0.1c0.1,0,0.1-0.1,0.1-0.1c0-0.1,0-0.1,0-0.2c0-0.1,0-0.2-0.1-0.2c0-0.1-0.1-0.1-0.1-0.1
				c-0.1,0-0.1,0-0.2,0c-0.1,0-0.1,0-0.2,0h-0.1V54.3z M357.9,56h0.1c0.1,0,0.2,0,0.3,0c0.1,0,0.2,0,0.3,0c0.1,0,0.2-0.1,0.2-0.1
				c0.1-0.1,0.1-0.1,0.1-0.3c0-0.1,0-0.2-0.1-0.3c-0.1-0.1-0.1-0.1-0.2-0.1c-0.1,0-0.2,0-0.3,0c-0.1,0-0.2,0-0.3,0h-0.1V56z"/>
			<path class="st0" d="M361.4,56.8h-1V54h1V56.8z"/>
			<path class="st0" d="M365,56.9c-0.2,0-0.3,0-0.4-0.1c-0.1,0-0.2-0.1-0.2-0.2c-0.1-0.1-0.1-0.2-0.1-0.2c0-0.1-0.1-0.2-0.1-0.3h0
				c0,0.1,0,0.2-0.1,0.3c0,0.1-0.1,0.2-0.1,0.2c-0.1,0.1-0.1,0.1-0.2,0.2c-0.1,0-0.2,0.1-0.4,0.1c-0.2,0-0.4,0-0.6-0.1
				c-0.2-0.1-0.3-0.2-0.4-0.3c-0.1-0.1-0.2-0.3-0.3-0.5c-0.1-0.2-0.1-0.4-0.1-0.6c0-0.2,0-0.4,0.1-0.6c0.1-0.2,0.2-0.3,0.3-0.5
				c0.1-0.1,0.3-0.2,0.5-0.3c0.2-0.1,0.4-0.1,0.6-0.1h0.1v0.8h-0.1c-0.1,0-0.2,0-0.2,0c-0.1,0-0.1,0.1-0.2,0.1
				c0,0.1-0.1,0.1-0.1,0.2c0,0.1,0,0.2,0,0.2c0,0.1,0,0.2,0,0.2c0,0.1,0,0.1,0.1,0.2c0,0.1,0.1,0.1,0.1,0.1c0.1,0,0.1,0,0.2,0
				c0.1,0,0.1,0,0.2,0c0,0,0.1-0.1,0.1-0.1c0,0,0-0.1,0-0.2c0-0.1,0-0.1,0-0.2V55h1v0.5c0,0.1,0,0.2,0,0.2c0,0.1,0,0.1,0,0.2
				c0,0,0.1,0.1,0.1,0.1c0,0,0.1,0,0.2,0c0.1,0,0.2,0,0.2,0c0.1,0,0.1-0.1,0.1-0.1c0-0.1,0.1-0.1,0.1-0.2c0-0.1,0-0.2,0-0.2
				c0-0.1,0-0.2,0-0.2c0-0.1,0-0.1-0.1-0.2c0-0.1-0.1-0.1-0.2-0.1c-0.1,0-0.1,0-0.2,0h-0.1v-0.8h0.1c0.2,0,0.4,0,0.6,0.1
				c0.2,0.1,0.4,0.2,0.5,0.3c0.1,0.1,0.2,0.3,0.3,0.5c0.1,0.2,0.1,0.4,0.1,0.6c0,0.2,0,0.4-0.1,0.6c-0.1,0.2-0.2,0.3-0.3,0.5
				c-0.1,0.1-0.3,0.2-0.4,0.3C365.4,56.8,365.2,56.9,365,56.9z M364.2,53.6h-0.5l0.4-1.1h0.9L364.2,53.6z"/>
			<path class="st0" d="M369.9,54v0.8h-0.3l0,0c0.1,0.1,0.2,0.2,0.2,0.3c0.1,0.1,0.1,0.3,0.1,0.4c0,0.2,0,0.4-0.1,0.6
				c-0.1,0.2-0.2,0.3-0.4,0.4c-0.2,0.1-0.3,0.2-0.5,0.3c-0.2,0.1-0.4,0.1-0.6,0.1c-0.2,0-0.4,0-0.6-0.1c-0.2-0.1-0.4-0.2-0.5-0.3
				c-0.2-0.1-0.3-0.3-0.4-0.5c-0.1-0.2-0.1-0.4-0.1-0.6c0-0.2,0-0.4,0.1-0.6c0.1-0.2,0.2-0.3,0.4-0.5c0.2-0.1,0.3-0.2,0.5-0.3
				c0.2-0.1,0.4-0.1,0.6-0.1c0.1,0,0.2,0,0.3,0c0.1,0,0.2,0,0.3,0.1H369.9z M368.3,54.8c-0.2,0-0.4,0.1-0.5,0.2
				c-0.1,0.1-0.2,0.3-0.2,0.4c0,0.2,0.1,0.3,0.2,0.4c0.1,0.1,0.3,0.2,0.5,0.2s0.4-0.1,0.5-0.2c0.1-0.1,0.2-0.3,0.2-0.4
				c0-0.2-0.1-0.3-0.2-0.4C368.6,54.8,368.5,54.8,368.3,54.8z"/>
			<path class="st0" d="M371.3,56.8h-1V54h1V56.8z"/>
			<path class="st0" d="M373,56.6v1.5h-1V54h1v1.8c0,0.1,0,0.2,0.1,0.3c0.1,0.1,0.2,0.1,0.3,0.1c0.2,0,0.3-0.1,0.4-0.2
				c0.1-0.1,0.1-0.3,0.1-0.5V54h1v2.8h-1v-0.4h0c0,0.1,0,0.1-0.1,0.2c0,0.1-0.1,0.1-0.1,0.1c0,0-0.1,0.1-0.2,0.1c-0.1,0-0.1,0-0.2,0
				c-0.1,0-0.2,0-0.2-0.1C373.1,56.7,373,56.7,373,56.6L373,56.6z"/>
			<path class="st0" d="M376.5,54.4L376.5,54.4c0.1-0.2,0.3-0.3,0.4-0.3c0.1-0.1,0.3-0.1,0.5-0.1c0.2,0,0.3,0,0.5,0.1
				c0.1,0.1,0.2,0.1,0.3,0.2c0.1,0.1,0.1,0.2,0.2,0.4c0,0.1,0.1,0.3,0.1,0.5v3.1h-1v-2.7c0-0.1,0-0.1,0-0.2c0-0.1,0-0.2,0-0.2
				c0-0.1-0.1-0.1-0.1-0.2c-0.1-0.1-0.2-0.1-0.3-0.1c-0.1,0-0.2,0-0.2,0.1c-0.1,0-0.1,0.1-0.2,0.1c0,0.1-0.1,0.1-0.1,0.2
				c0,0.1,0,0.2,0,0.2v1.4h-1V54h1V54.4z"/>
			<path class="st0" d="M381.9,56.1l-0.3,0.7h-1.1l1.6-4h1.1l1.5,4h-1.1l-0.3-0.7H381.9z M382.7,54L382.7,54l-0.4,1.3h0.9L382.7,54z
				"/>
			<path class="st0" d="M386.4,55.4l0.7-1.4h1.1l-1.4,2.8h-0.6l-1.4-2.8h1.1L386.4,55.4z"/>
			<path class="st0" d="M391.4,56.8h-1v-0.3h0c-0.1,0.1-0.2,0.2-0.4,0.3c-0.2,0.1-0.3,0.1-0.5,0.1c-0.2,0-0.4,0-0.6-0.1
				c-0.2-0.1-0.3-0.2-0.4-0.3c-0.1-0.1-0.2-0.3-0.3-0.5c-0.1-0.2-0.1-0.4-0.1-0.6c0-0.2,0-0.4,0.1-0.6c0.1-0.2,0.2-0.3,0.3-0.5
				c0.1-0.1,0.3-0.2,0.4-0.3c0.2-0.1,0.4-0.1,0.6-0.1c0.2,0,0.3,0,0.5,0.1c0.2,0.1,0.3,0.2,0.4,0.3V54h1V56.8z M389.8,54.8
				c-0.2,0-0.4,0.1-0.5,0.2c-0.1,0.1-0.2,0.3-0.2,0.4c0,0.2,0.1,0.3,0.2,0.4c0.1,0.1,0.3,0.2,0.5,0.2c0.2,0,0.4-0.1,0.5-0.2
				c0.1-0.1,0.2-0.3,0.2-0.4c0-0.2-0.1-0.3-0.2-0.4C390.2,54.8,390,54.8,389.8,54.8z M390,53.6h-0.5l0.4-1.1h0.9L390,53.6z"/>
			<path class="st0" d="M394.9,56.8h-1v-2H393v2h-1V54h2.9V56.8z"/>
			<path class="st0" d="M397.1,56.8h-1v-2h-0.8V54h2.6v0.8h-0.8V56.8z"/>
			<path class="st0" d="M399.3,54v1.5c0,0.1,0,0.2,0,0.2c0,0.1,0,0.1,0.1,0.2c0,0.1,0.1,0.1,0.1,0.1c0.1,0,0.1,0,0.2,0
				c0.2,0,0.3-0.1,0.4-0.2c0.1-0.1,0.1-0.3,0.1-0.4V54h1v1.7c0,0.2,0,0.4-0.1,0.6c-0.1,0.2-0.2,0.3-0.3,0.4
				c-0.1,0.1-0.3,0.2-0.5,0.2c-0.2,0-0.4,0.1-0.6,0.1c-0.2,0-0.4,0-0.6-0.1c-0.2,0-0.3-0.1-0.5-0.2c-0.1-0.1-0.2-0.2-0.3-0.4
				c-0.1-0.2-0.1-0.3-0.1-0.6V54H399.3z"/>
			<path class="st0" d="M404.1,57.2c0,0.1,0,0.2-0.1,0.4c0,0.1-0.1,0.2-0.2,0.3c-0.1,0.1-0.2,0.2-0.3,0.2c-0.1,0.1-0.2,0.1-0.3,0.1
				l-0.3-0.7c0.1,0,0.2-0.1,0.2-0.1c0.1-0.1,0.1-0.1,0.1-0.2c0,0,0-0.1,0-0.1c0,0,0-0.1-0.1-0.1c0,0-0.1-0.1-0.2-0.1
				c-0.1,0-0.2,0-0.3,0c-0.2,0-0.3-0.1-0.5-0.1c-0.1-0.1-0.3-0.2-0.4-0.3c-0.1-0.1-0.2-0.3-0.2-0.4c-0.1-0.2-0.1-0.3-0.1-0.5
				c0-0.1,0-0.2,0.1-0.3c0-0.1,0.1-0.2,0.1-0.3c0.1-0.1,0.1-0.2,0.2-0.3c0.1-0.1,0.2-0.1,0.3-0.2v0c-0.2-0.1-0.3-0.1-0.4-0.3
				c-0.1-0.1-0.1-0.2-0.1-0.4c0-0.1,0-0.3,0.1-0.4c0.1-0.1,0.1-0.2,0.2-0.2c0.1-0.1,0.2-0.1,0.3-0.1l0,0h-0.6v-0.8h2.1v0.8h-0.6
				c-0.1,0-0.1,0-0.2,0.1c-0.1,0-0.1,0.1-0.2,0.1c-0.1,0-0.1,0.1-0.1,0.2c0,0.1-0.1,0.1-0.1,0.2c0,0.1,0,0.2,0.1,0.2
				c0,0.1,0.1,0.1,0.1,0.1c0.1,0,0.1,0,0.2,0.1c0.1,0,0.1,0,0.2,0h0.5v0.7h-0.6c-0.1,0-0.1,0-0.2,0.1c-0.1,0-0.1,0.1-0.2,0.2
				c-0.1,0.1-0.1,0.1-0.1,0.2c0,0.1,0,0.2,0,0.2c0,0.1,0,0.2,0.1,0.3c0,0.1,0.1,0.1,0.1,0.2c0.1,0,0.1,0.1,0.2,0.1
				c0.1,0,0.2,0,0.2,0.1c0.1,0,0.2,0.1,0.3,0.1c0.1,0,0.2,0.1,0.2,0.2c0.1,0.1,0.2,0.2,0.2,0.3C404.1,56.9,404.1,57,404.1,57.2z"/>
			<path class="st0" d="M405.5,54.4L405.5,54.4c0.1-0.2,0.3-0.3,0.4-0.3c0.1-0.1,0.3-0.1,0.5-0.1c0.2,0,0.3,0,0.5,0.1
				c0.1,0.1,0.2,0.1,0.3,0.2c0.1,0.1,0.1,0.2,0.2,0.4c0,0.1,0.1,0.3,0.1,0.5v3.1h-1v-2.7c0-0.1,0-0.1,0-0.2c0-0.1,0-0.2,0-0.2
				c0-0.1-0.1-0.1-0.1-0.2c-0.1-0.1-0.2-0.1-0.3-0.1c-0.1,0-0.2,0-0.2,0.1c-0.1,0-0.1,0.1-0.2,0.1s-0.1,0.1-0.1,0.2
				c0,0.1,0,0.2,0,0.2v1.4h-1V54h1V54.4z"/>
			<path class="st0" d="M409.5,54h1.1l0.7,1.7l0.7-1.7h1.1l-1.3,2.8v1.3h-1v-1.3L409.5,54z"/>
			<path class="st0" d="M414.2,56.8h-1V54h1V56.8z"/>
			<path class="st0" d="M417.9,56.8h-1v-0.3h0c-0.1,0.1-0.2,0.2-0.4,0.3c-0.2,0.1-0.3,0.1-0.5,0.1c-0.2,0-0.4,0-0.6-0.1
				c-0.2-0.1-0.3-0.2-0.4-0.3c-0.1-0.1-0.2-0.3-0.3-0.5c-0.1-0.2-0.1-0.4-0.1-0.6c0-0.2,0-0.4,0.1-0.6c0.1-0.2,0.2-0.3,0.3-0.5
				c0.1-0.1,0.3-0.2,0.4-0.3c0.2-0.1,0.4-0.1,0.6-0.1c0.2,0,0.3,0,0.5,0.1c0.2,0.1,0.3,0.2,0.4,0.3V54h1V56.8z M416.3,54.8
				c-0.2,0-0.4,0.1-0.5,0.2c-0.1,0.1-0.2,0.3-0.2,0.4c0,0.2,0.1,0.3,0.2,0.4c0.1,0.1,0.3,0.2,0.5,0.2c0.2,0,0.4-0.1,0.5-0.2
				c0.1-0.1,0.2-0.3,0.2-0.4c0-0.2-0.1-0.3-0.2-0.4C416.7,54.8,416.5,54.8,416.3,54.8z"/>
			<path class="st0" d="M419.7,53.6h-0.5l0.4-1.1h0.9L419.7,53.6z M422.4,52.6c0.3,0,0.6,0.1,0.8,0.2c0.3,0.1,0.5,0.2,0.7,0.4
				c0.2,0.2,0.4,0.4,0.5,0.7c0.1,0.3,0.2,0.5,0.2,0.8c0,0.3-0.1,0.6-0.2,0.9c-0.1,0.3-0.3,0.5-0.5,0.7c-0.2,0.2-0.4,0.3-0.7,0.5
				c-0.3,0.1-0.6,0.2-0.9,0.2c-0.3,0-0.6-0.1-0.9-0.2c-0.3-0.1-0.5-0.3-0.7-0.5c-0.2-0.2-0.4-0.4-0.5-0.7c-0.1-0.3-0.2-0.6-0.2-0.9
				c0-0.3,0.1-0.6,0.2-0.8c0.1-0.3,0.3-0.5,0.5-0.7c0.2-0.2,0.4-0.3,0.7-0.4C421.8,52.6,422.1,52.6,422.4,52.6z M422.4,53.6
				c-0.2,0-0.3,0-0.4,0.1c-0.1,0.1-0.3,0.1-0.4,0.2c-0.1,0.1-0.2,0.2-0.2,0.3c-0.1,0.1-0.1,0.3-0.1,0.4c0,0.2,0,0.3,0.1,0.5
				c0.1,0.1,0.1,0.3,0.2,0.4c0.1,0.1,0.2,0.2,0.4,0.3c0.1,0.1,0.3,0.1,0.4,0.1c0.2,0,0.3,0,0.4-0.1c0.1-0.1,0.3-0.1,0.4-0.3
				c0.1-0.1,0.2-0.2,0.2-0.4c0.1-0.1,0.1-0.3,0.1-0.5c0-0.1,0-0.3-0.1-0.4c-0.1-0.1-0.1-0.2-0.2-0.3c-0.1-0.1-0.2-0.2-0.4-0.2
				C422.7,53.6,422.6,53.6,422.4,53.6z"/>
			<path class="st0" d="M425,52.3h1.1l0.9,1.7l1.5,2.8h-1.1l-0.7-1.4l-0.7,1.4h-1.1l1.4-2.5L425,52.3z"/>
			<path class="st0" d="M430,53.9c0.2,0,0.4,0,0.6,0.1c0.2,0.1,0.4,0.2,0.5,0.3c0.2,0.1,0.3,0.3,0.4,0.5c0.1,0.2,0.1,0.4,0.1,0.6
				c0,0.2,0,0.4-0.1,0.6c-0.1,0.2-0.2,0.3-0.4,0.5c-0.2,0.1-0.3,0.2-0.5,0.3c-0.2,0.1-0.4,0.1-0.6,0.1c-0.2,0-0.4,0-0.6-0.1
				c-0.2-0.1-0.4-0.2-0.5-0.3c-0.2-0.1-0.3-0.3-0.4-0.5c-0.1-0.2-0.1-0.4-0.1-0.6c0-0.2,0-0.4,0.1-0.6c0.1-0.2,0.2-0.3,0.4-0.5
				c0.2-0.1,0.3-0.2,0.5-0.3C429.6,54,429.8,53.9,430,53.9z M430,54.8c-0.2,0-0.4,0.1-0.5,0.2c-0.1,0.1-0.2,0.3-0.2,0.4
				c0,0.2,0.1,0.3,0.2,0.4c0.1,0.1,0.3,0.2,0.5,0.2c0.2,0,0.4-0.1,0.5-0.2c0.1-0.1,0.2-0.3,0.2-0.4c0-0.2-0.1-0.3-0.2-0.4
				C430.4,54.8,430.2,54.8,430,54.8z"/>
			<path class="st0" d="M433.1,54v1.5c0,0.1,0,0.2,0,0.2c0,0.1,0,0.1,0.1,0.2c0,0.1,0.1,0.1,0.1,0.1c0.1,0,0.1,0,0.2,0
				c0.2,0,0.3-0.1,0.4-0.2c0.1-0.1,0.1-0.3,0.1-0.4V54h1v1.7c0,0.2,0,0.4-0.1,0.6c-0.1,0.2-0.2,0.3-0.3,0.4
				c-0.1,0.1-0.3,0.2-0.5,0.2c-0.2,0-0.4,0.1-0.6,0.1c-0.2,0-0.4,0-0.6-0.1c-0.2,0-0.3-0.1-0.5-0.2c-0.1-0.1-0.2-0.2-0.3-0.4
				c-0.1-0.2-0.1-0.3-0.1-0.6V54H433.1z"/>
			<path class="st0" d="M437.9,57.2c0,0.1,0,0.2-0.1,0.4c0,0.1-0.1,0.2-0.2,0.3c-0.1,0.1-0.2,0.2-0.3,0.2c-0.1,0.1-0.2,0.1-0.3,0.1
				l-0.3-0.7c0.1,0,0.2-0.1,0.2-0.1c0.1-0.1,0.1-0.1,0.1-0.2c0,0,0-0.1,0-0.1c0,0,0-0.1-0.1-0.1c0,0-0.1-0.1-0.2-0.1
				c-0.1,0-0.2,0-0.3,0c-0.2,0-0.3-0.1-0.5-0.1c-0.1-0.1-0.3-0.2-0.4-0.3c-0.1-0.1-0.2-0.3-0.2-0.4c-0.1-0.2-0.1-0.3-0.1-0.5
				c0-0.2,0-0.4,0.1-0.6c0.1-0.2,0.2-0.4,0.3-0.5c0.1-0.1,0.3-0.2,0.5-0.3c0.2-0.1,0.4-0.1,0.6-0.1c0.2,0,0.4,0.1,0.6,0.2v0.8
				c-0.1-0.1-0.1-0.1-0.2-0.1c-0.1,0-0.2-0.1-0.3-0.1c-0.2,0-0.3,0.1-0.5,0.2c-0.1,0.1-0.2,0.3-0.2,0.5c0,0.1,0,0.2,0.1,0.3
				c0,0.1,0.1,0.1,0.1,0.2c0.1,0,0.1,0.1,0.2,0.1c0.1,0,0.2,0,0.3,0.1c0.1,0,0.2,0.1,0.3,0.1c0.1,0,0.2,0.1,0.2,0.2
				c0.1,0.1,0.2,0.2,0.2,0.3C437.9,56.9,437.9,57,437.9,57.2z"/>
		</g>
	</g>
</g>
<g>
	<path class="st1" d="M109.8,29.8V16.8h3.9l2.3,8.8l2.3-8.8h3.9v12.9h-2.4V19.6l-2.6,10.2h-2.5l-2.6-10.2v10.2H109.8z"/>
	<path class="st1" d="M129.4,24v1.9c-1,0-1.7,0.1-2.1,0.2c-0.4,0.2-0.5,0.5-0.5,0.9c0,0.3,0.1,0.5,0.4,0.7c0.3,0.2,0.6,0.3,0.9,0.3
		c0.6,0,1.4-0.3,2.2-0.9l1.6,1.6c-1.4,0.8-2.7,1.2-4,1.2c-1.1,0-1.9-0.3-2.6-0.8c-0.7-0.5-1.1-1.2-1.1-2c0-1.1,0.6-1.8,1.7-2.3
		c-0.9-0.5-1.3-1.2-1.3-2c0-0.7,0.3-1.4,0.8-1.9c0.6-0.5,1.5-0.8,2.7-0.8c1.4,0,2.5,0.3,3.4,0.9l-1.5,1.6c-0.6-0.3-1.2-0.5-1.8-0.5
		c-0.4,0-0.7,0.1-0.9,0.2c-0.2,0.2-0.3,0.4-0.3,0.6C127.1,23.6,127.8,24,129.4,24z"/>
	<path class="st1" d="M137.6,20.4h7.2v2.1h-2.3v7.3H140v-7.3h-2.4V20.4z"/>
	<path class="st1" d="M155,33.3h-2.5V25c0-0.8,0-1.4-0.1-1.8c-0.1-0.3-0.2-0.6-0.5-0.8c-0.3-0.2-0.6-0.3-1-0.3
		c-0.5,0-0.9,0.1-1.2,0.4c-0.3,0.3-0.6,0.6-0.7,1c-0.1,0.4-0.2,1.1-0.2,2v4.2h-2.5v-9.4h2.3v1.4c0.8-1.1,1.9-1.6,3.1-1.6
		c0.7,0,1.3,0.2,1.8,0.5c0.5,0.3,0.8,0.7,1,1.2c0.2,0.5,0.3,1.2,0.3,2.1V33.3z"/>
	<path class="st1" d="M173.2,20.4v2.1H171c0.5,0.8,0.7,1.6,0.7,2.6c0,1.4-0.4,2.5-1.3,3.5c-0.9,1-2.1,1.4-3.5,1.4
		c-1.4,0-2.6-0.4-3.5-1.3c-0.9-0.9-1.3-2.1-1.3-3.5c0-1.4,0.4-2.6,1.3-3.5c0.9-0.9,2.1-1.4,3.6-1.4c0.4,0,1,0.1,1.5,0.2H173.2z
		 M164.5,25.1c0,0.9,0.2,1.6,0.6,2.1c0.4,0.5,1,0.8,1.6,0.8c0.6,0,1.2-0.2,1.6-0.7c0.4-0.5,0.7-1.2,0.7-2.2c0-0.8-0.2-1.5-0.6-2.1
		c-0.4-0.5-1-0.8-1.7-0.8c-0.7,0-1.2,0.3-1.7,0.8C164.7,23.5,164.5,24.2,164.5,25.1z"/>
	<path class="st1" d="M174.7,20.4h2.5v4.8c0,1.1,0.2,1.9,0.5,2.2c0.3,0.3,0.7,0.5,1.3,0.5c0.6,0,1-0.2,1.3-0.6
		c0.3-0.4,0.4-1.1,0.4-2.2v-4.8h2.5v4.4c0,1.3-0.1,2.2-0.4,2.9c-0.3,0.7-0.7,1.2-1.4,1.6c-0.7,0.4-1.4,0.6-2.4,0.6
		c-1,0-1.8-0.2-2.5-0.6c-0.7-0.4-1.1-1-1.4-1.7c-0.3-0.7-0.4-1.7-0.4-2.9V20.4z"/>
	<path class="st1" d="M188,29.8l-3.7-9.4h2.6l1.8,4.8l0.5,1.6l0.3-0.8c0.1-0.3,0.2-0.5,0.3-0.8l1.8-4.8h2.6l-3.6,9.4v3.6H188V29.8z"
		/>
	<path class="st1" d="M194.6,20.4h2.7l2.1,4.3l2.3-4.3h2.6l-3.4,6.4l3.6,6.5h-2.8l-2.3-4.5l-2.3,4.5h-2.7l3.6-6.5L194.6,20.4z"/>
	<path class="st1" d="M208.1,29.2v4.1h-2.5v-7.4c0-1.3,0.1-2.4,0.4-3.2c0.3-0.8,0.8-1.4,1.5-1.9c0.7-0.5,1.6-0.7,2.6-0.7
		c1.5,0,2.7,0.5,3.6,1.5c0.9,1,1.3,2.1,1.3,3.5c0,1.3-0.4,2.5-1.3,3.4c-0.9,0.9-1.9,1.4-3.2,1.4C209.8,30,209,29.7,208.1,29.2z
		 M208.1,25.4c0,0.8,0.2,1.4,0.6,1.9c0.4,0.5,0.9,0.7,1.6,0.7c0.7,0,1.2-0.3,1.6-0.8c0.4-0.5,0.6-1.2,0.6-2.1c0-0.9-0.2-1.6-0.6-2.1
		c-0.4-0.5-0.9-0.8-1.6-0.8c-0.6,0-1.1,0.2-1.6,0.7C208.4,23.4,208.1,24.2,208.1,25.4z"/>
	<path class="st1" d="M225.6,33.3h-2.5V25c0-0.8,0-1.4-0.1-1.8c-0.1-0.3-0.2-0.6-0.5-0.8c-0.3-0.2-0.6-0.3-1-0.3
		c-0.5,0-0.9,0.1-1.2,0.4c-0.3,0.3-0.6,0.6-0.7,1c-0.1,0.4-0.2,1.1-0.2,2v4.2h-2.5v-9.4h2.3v1.4c0.8-1.1,1.8-1.6,3.1-1.6
		c0.7,0,1.3,0.2,1.8,0.5c0.5,0.3,0.8,0.7,1,1.2c0.2,0.5,0.3,1.2,0.3,2.1V33.3z"/>
	<path class="st1" d="M228.1,20.4h2.5v4.3c0,0.8,0,1.4,0.1,1.9c0.1,0.4,0.3,0.8,0.6,1.1c0.3,0.3,0.6,0.4,1,0.4
		c0.4,0,0.8-0.1,1.1-0.4c0.3-0.3,0.5-0.6,0.6-1.1c0.1-0.4,0.1-1,0.1-1.9v-4.3h2.5v9.4h-2.3v-1.1c-0.5,0.9-1.1,1.3-1.9,1.3
		c-0.8,0-1.5-0.4-1.9-1.3v4.7h-2.5V20.4z"/>
	<path class="st1" d="M246.3,20.4h2.1c-0.3,0.7-0.6,1.6-0.8,2.6c-0.2,1.1-0.3,1.8-0.3,2.2c0,0.5,0.1,1.3,0.3,2.1
		c0.2,0.9,0.5,1.7,0.8,2.4h-2.1c0-0.1-0.1-0.3-0.2-0.5c-0.1-0.4-0.2-0.7-0.3-1.1c-0.7,1.2-1.8,1.8-3.1,1.8c-1.3,0-2.3-0.5-3-1.5
		c-0.7-1-1.1-2.2-1.1-3.6c0-1.3,0.4-2.4,1.1-3.3c0.7-0.9,1.7-1.4,3-1.4c1.3,0,2.3,0.6,3.1,1.8C245.9,21.6,246,21,246.3,20.4z
		 M241.1,25.1c0,0.9,0.2,1.6,0.6,2.1c0.4,0.5,0.8,0.8,1.4,0.8c0.6,0,1-0.2,1.4-0.7c0.4-0.5,0.5-1.2,0.5-2.2c0-1-0.2-1.7-0.6-2.2
		c-0.4-0.5-0.8-0.7-1.4-0.7c-0.6,0-1,0.3-1.4,0.8C241.3,23.4,241.1,24.2,241.1,25.1z"/>
	<path class="st1" d="M249.4,20.4h7.2v2.1h-2.3v7.3h-2.5v-7.3h-2.4V20.4z"/>
	<path class="st1" d="M257.3,24.9c0-0.8,0.2-1.6,0.6-2.4c0.4-0.8,1-1.4,1.7-1.8c0.7-0.4,1.6-0.6,2.5-0.6c1.4,0,2.6,0.5,3.5,1.4
		c0.9,0.9,1.4,2.1,1.4,3.5c0,1.4-0.5,2.6-1.4,3.5c-0.9,0.9-2.1,1.4-3.5,1.4c-0.9,0-1.7-0.2-2.5-0.6c-0.8-0.4-1.4-1-1.8-1.7
		C257.5,26.9,257.3,26,257.3,24.9z M259.8,25.1c0,0.9,0.2,1.6,0.7,2.1c0.4,0.5,1,0.7,1.6,0.7c0.6,0,1.2-0.2,1.6-0.7
		c0.4-0.5,0.7-1.2,0.7-2.2c0-0.9-0.2-1.6-0.7-2.1c-0.4-0.5-1-0.7-1.6-0.7c-0.6,0-1.2,0.2-1.6,0.7C260.1,23.4,259.8,24.1,259.8,25.1z
		"/>
	<path class="st1" d="M269.2,16.8h7.9v2.1h-4.4c0.5,0.5,1.3,1.1,2.5,1.9c0.8,0.5,1.3,0.9,1.6,1.3c0.3,0.4,0.6,0.8,0.8,1.4
		c0.2,0.5,0.3,1.1,0.3,1.7c0,1.3-0.4,2.5-1.2,3.4c-0.8,0.9-2,1.4-3.6,1.4c-1.1,0-1.9-0.2-2.5-0.6c-0.6-0.4-1.2-1-1.6-1.7
		c-0.4-0.8-0.7-1.6-0.7-2.6c0-1.1,0.3-2.1,1-3c0.6-0.9,1.5-1.4,2.5-1.5c-0.7-0.5-1.1-0.8-1.3-1l-1.3-1V16.8z M270.7,25.3
		c0,0.9,0.2,1.6,0.7,2c0.5,0.5,1,0.7,1.7,0.7c0.7,0,1.2-0.2,1.7-0.7c0.5-0.5,0.7-1.2,0.7-2.1c0-0.9-0.2-1.6-0.7-2.1
		c-0.5-0.5-1-0.7-1.7-0.7c-0.8,0-1.3,0.3-1.8,0.8C270.9,23.8,270.7,24.5,270.7,25.3z"/>
	<path class="st1" d="M279.3,24.9c0-0.8,0.2-1.6,0.6-2.4c0.4-0.8,1-1.4,1.7-1.8c0.7-0.4,1.6-0.6,2.5-0.6c1.4,0,2.6,0.5,3.5,1.4
		c0.9,0.9,1.4,2.1,1.4,3.5c0,1.4-0.5,2.6-1.4,3.5c-0.9,0.9-2.1,1.4-3.5,1.4c-0.9,0-1.7-0.2-2.5-0.6c-0.8-0.4-1.4-1-1.8-1.7
		C279.5,26.9,279.3,26,279.3,24.9z M281.8,25.1c0,0.9,0.2,1.6,0.7,2.1c0.4,0.5,1,0.7,1.6,0.7c0.6,0,1.2-0.2,1.6-0.7
		c0.4-0.5,0.7-1.2,0.7-2.2c0-0.9-0.2-1.6-0.7-2.1c-0.4-0.5-1-0.7-1.6-0.7c-0.6,0-1.2,0.2-1.6,0.7C282.1,23.4,281.8,24.1,281.8,25.1z
		 M282.7,19.2l1.2-2.6h2.8l-2.4,2.6H282.7z"/>
	<path class="st1" d="M289.5,20.4h7.2v2.1h-2.3v7.3H292v-7.3h-2.4V20.4z"/>
	<path class="st1" d="M307,33.3h-2.5V25c0-0.8,0-1.4-0.1-1.8c-0.1-0.3-0.2-0.6-0.5-0.8c-0.3-0.2-0.6-0.3-1-0.3
		c-0.5,0-0.9,0.1-1.2,0.4c-0.3,0.3-0.6,0.6-0.7,1c-0.1,0.4-0.2,1.1-0.2,2v4.2h-2.5v-9.4h2.3v1.4c0.8-1.1,1.9-1.6,3.1-1.6
		c0.7,0,1.3,0.2,1.8,0.5c0.5,0.3,0.8,0.7,1,1.2c0.2,0.5,0.3,1.2,0.3,2.1V33.3z"/>
	<path class="st1" d="M320.1,20.4v2.1h-2.3c0.5,0.8,0.7,1.6,0.7,2.6c0,1.4-0.4,2.5-1.3,3.5c-0.9,1-2.1,1.4-3.5,1.4
		c-1.4,0-2.6-0.4-3.5-1.3c-0.9-0.9-1.3-2.1-1.3-3.5c0-1.4,0.4-2.6,1.3-3.5s2.1-1.4,3.6-1.4c0.4,0,1,0.1,1.5,0.2H320.1z M311.4,25.1
		c0,0.9,0.2,1.6,0.6,2.1c0.4,0.5,1,0.8,1.6,0.8c0.6,0,1.2-0.2,1.6-0.7c0.4-0.5,0.7-1.2,0.7-2.2c0-0.8-0.2-1.5-0.6-2.1
		c-0.4-0.5-1-0.8-1.7-0.8c-0.7,0-1.2,0.3-1.7,0.8C311.6,23.5,311.4,24.2,311.4,25.1z"/>
	<path class="st1" d="M330.4,33.3h-2.5V25c0-0.8,0-1.4-0.1-1.8c-0.1-0.3-0.2-0.6-0.5-0.8c-0.3-0.2-0.6-0.3-1-0.3
		c-0.5,0-0.9,0.1-1.2,0.4c-0.3,0.3-0.6,0.6-0.7,1c-0.1,0.4-0.2,1.1-0.2,2v4.2h-2.5v-9.4h2.3v1.4c0.8-1.1,1.9-1.6,3.1-1.6
		c0.7,0,1.3,0.2,1.8,0.5c0.5,0.3,0.8,0.7,1,1.2c0.2,0.5,0.3,1.2,0.3,2.1V33.3z"/>
	<path class="st1" d="M109.7,42.1h7.2v2.1h-2.3v7.3h-2.5v-7.3h-2.4V42.1z"/>
	<path class="st1" d="M127.1,55h-2.5v-8.3c0-0.8,0-1.4-0.1-1.8c-0.1-0.3-0.2-0.6-0.5-0.8c-0.3-0.2-0.6-0.3-1-0.3
		c-0.5,0-0.9,0.1-1.2,0.4c-0.3,0.3-0.6,0.6-0.7,1c-0.1,0.4-0.2,1.1-0.2,2v4.2h-2.5v-9.4h2.3v1.4c0.8-1.1,1.9-1.6,3.1-1.6
		c0.7,0,1.3,0.2,1.8,0.5c0.5,0.3,0.8,0.7,1,1.2c0.2,0.5,0.3,1.2,0.3,2.1V55z"/>
	<path class="st1" d="M137.5,42.3l-0.5,2.1c-0.7-0.2-1.3-0.3-1.9-0.3c-1.1,0-2,0.3-2.7,0.9c-0.7,0.6-1.1,1.3-1.1,2.1
		c0,0.5,0.2,1,0.6,1.3c0.4,0.3,1.1,0.6,2,0.8c1.2,0.3,2,0.7,2.5,1.2c0.5,0.5,0.8,1.1,0.8,2c0,0.9-0.4,1.6-1.1,2.2
		c-0.7,0.5-1.7,0.8-2.8,0.8c-0.3,0-0.9,0-1.7-0.1l0.5-2.1c0.5,0.1,0.9,0.2,1.2,0.2c0.4,0,0.7-0.1,0.9-0.2c0.3-0.2,0.4-0.4,0.4-0.7
		c0-0.3-0.1-0.5-0.3-0.6c-0.2-0.2-0.6-0.3-1.2-0.4c-1.5-0.3-2.5-0.8-3.1-1.5c-0.6-0.7-1-1.5-1-2.5c0-0.9,0.2-1.8,0.7-2.6
		c0.5-0.8,1.2-1.5,2.1-2c0.9-0.5,1.9-0.7,3-0.7C135.9,41.9,136.7,42,137.5,42.3z"/>
	<path class="st1" d="M144.1,51.4V38.5h9.6v2.2h-7v2.9h6.5v2.2h-6.5v3.5h7.2v2.2H144.1z"/>
	<path class="st1" d="M155.9,42.1h2.5v4.8c0,1.1,0.2,1.9,0.5,2.2c0.3,0.3,0.7,0.5,1.3,0.5c0.6,0,1-0.2,1.3-0.6
		c0.3-0.4,0.4-1.1,0.4-2.2v-4.8h2.5v4.4c0,1.3-0.1,2.2-0.4,2.9c-0.3,0.7-0.7,1.2-1.4,1.6c-0.7,0.4-1.4,0.6-2.4,0.6
		c-1,0-1.8-0.2-2.5-0.6c-0.7-0.4-1.1-1-1.4-1.7c-0.3-0.7-0.4-1.7-0.4-2.9V42.1z"/>
	<path class="st1" d="M169,50.9V55h-2.5v-7.4c0-1.3,0.1-2.4,0.4-3.2s0.8-1.4,1.5-1.9c0.7-0.5,1.6-0.7,2.6-0.7c1.5,0,2.7,0.5,3.6,1.5
		c0.9,1,1.3,2.1,1.3,3.5c0,1.3-0.4,2.5-1.3,3.4c-0.9,0.9-1.9,1.4-3.2,1.4C170.6,51.7,169.8,51.4,169,50.9z M169,47
		c0,0.8,0.2,1.4,0.6,1.9c0.4,0.5,0.9,0.7,1.6,0.7c0.7,0,1.2-0.3,1.6-0.8c0.4-0.5,0.6-1.2,0.6-2.1c0-0.9-0.2-1.6-0.6-2.1
		c-0.4-0.5-0.9-0.8-1.6-0.8c-0.6,0-1.1,0.2-1.6,0.7C169.2,45,169,45.9,169,47z"/>
	<path class="st1" d="M178.7,42.1h2.4c-0.8,1.6-1.2,3.3-1.2,4.9c0,1,0.2,1.7,0.5,2.1c0.3,0.4,0.8,0.6,1.2,0.6c0.3,0,0.6-0.1,0.9-0.3
		c0.2-0.2,0.4-0.4,0.5-0.7c0.1-0.3,0.1-0.7,0.1-1.4v-2.8h2.5v2.8c0,0.6,0,1,0.1,1.3c0.1,0.3,0.2,0.6,0.5,0.8
		c0.3,0.2,0.5,0.3,0.9,0.3c0.5,0,0.9-0.2,1.2-0.6c0.3-0.4,0.5-1.1,0.5-2.1c0-0.7-0.1-1.5-0.3-2.4c-0.2-0.9-0.5-1.7-0.9-2.5h2.4
		c0.3,0.5,0.6,1.3,0.9,2.2c0.3,0.9,0.4,1.8,0.4,2.6c0,1.4-0.4,2.5-1.1,3.4c-0.7,0.9-1.7,1.3-2.9,1.3c-1.4,0-2.4-0.7-3-2
		c-0.6,1.3-1.6,2-3,2c-1.2,0-2.2-0.4-2.9-1.3c-0.7-0.9-1.1-2-1.1-3.4c0-0.8,0.1-1.7,0.4-2.6C178,43.4,178.3,42.6,178.7,42.1z"/>
	<path class="st1" d="M191.8,42.1h13v2.1h-2.5v7.3h-2.5v-7.3h-3v7.3h-2.5v-7.3h-2.5V42.1z"/>
	<path class="st1" d="M213.2,42.1h2.1c-0.3,0.7-0.6,1.6-0.8,2.6c-0.2,1.1-0.3,1.8-0.3,2.2c0,0.5,0.1,1.3,0.3,2.1
		c0.2,0.9,0.5,1.7,0.8,2.4h-2.1c0-0.1-0.1-0.3-0.2-0.5c-0.1-0.4-0.2-0.7-0.3-1.1c-0.7,1.2-1.8,1.8-3.1,1.8c-1.3,0-2.3-0.5-3-1.5
		c-0.7-1-1.1-2.2-1.1-3.6c0-1.3,0.4-2.4,1.1-3.3c0.7-0.9,1.7-1.4,3-1.4c1.3,0,2.3,0.6,3.1,1.8C212.7,43.3,212.9,42.7,213.2,42.1z
		 M208,46.8c0,0.9,0.2,1.6,0.6,2.1c0.4,0.5,0.8,0.8,1.4,0.8c0.6,0,1-0.2,1.4-0.7c0.4-0.5,0.5-1.2,0.5-2.2c0-1-0.2-1.7-0.6-2.2
		c-0.4-0.5-0.8-0.8-1.4-0.8c-0.6,0-1,0.3-1.4,0.8C208.2,45.1,208,45.8,208,46.8z"/>
	<path class="st1" d="M215.5,40.4v-2.1h2.1v2.1H215.5z M217.2,51.4v-9.4h2.5v9.4H217.2z M219.3,40.4v-2.1h2.1v2.1H219.3z"/>
	<path class="st1" d="M222.2,42.1h2.5v3.2l2.9-3.2h3l-3.8,4l4.1,5.4H228l-2.7-3.7l-0.6,0.6v3.1h-2.5V42.1z"/>
	<path class="st1" d="M240.8,55h-2.5v-8.3c0-0.8,0-1.4-0.1-1.8c-0.1-0.3-0.2-0.6-0.5-0.8c-0.3-0.2-0.6-0.3-1-0.3
		c-0.5,0-0.9,0.1-1.2,0.4c-0.3,0.3-0.6,0.6-0.7,1c-0.1,0.4-0.2,1.1-0.2,2v4.2h-2.5v-9.4h2.3v1.4c0.8-1.1,1.8-1.6,3.1-1.6
		c0.7,0,1.3,0.2,1.8,0.5c0.5,0.3,0.8,0.7,1,1.2c0.2,0.5,0.3,1.2,0.3,2.1V55z M235.2,40.9l1.2-2.6h2.8l-2.4,2.6H235.2z"/>
	<path class="st1" d="M251.2,42.3l-0.5,2.1c-0.7-0.2-1.3-0.3-1.9-0.3c-1.1,0-2,0.3-2.7,0.9c-0.7,0.6-1.1,1.3-1.1,2.1
		c0,0.5,0.2,1,0.6,1.3c0.4,0.3,1.1,0.6,2,0.8c1.2,0.3,2,0.7,2.5,1.2c0.5,0.5,0.8,1.1,0.8,2c0,0.9-0.4,1.6-1.1,2.2
		c-0.7,0.5-1.7,0.8-2.8,0.8c-0.3,0-0.9,0-1.7-0.1l0.5-2.1c0.5,0.1,0.9,0.2,1.2,0.2c0.4,0,0.7-0.1,0.9-0.2c0.2-0.2,0.4-0.4,0.4-0.7
		c0-0.3-0.1-0.5-0.3-0.6c-0.2-0.2-0.6-0.3-1.2-0.4c-1.5-0.3-2.5-0.8-3.1-1.5c-0.6-0.7-1-1.5-1-2.5c0-0.9,0.2-1.8,0.7-2.6
		c0.5-0.8,1.2-1.5,2.1-2c0.9-0.5,1.9-0.7,3-0.7C249.6,41.9,250.4,42,251.2,42.3z"/>
	<path class="st1" d="M255.9,40.8l1.4-2.3h3.3l-2.9,2.3H255.9z M261.2,51.4V38.5h9.6v2.2h-7v2.9h6.5v2.2h-6.5v3.5h7.2v2.2H261.2z"/>
	<path class="st1" d="M275.8,51.4l-3.8-9.4h2.6l1.8,4.8l0.5,1.6c0.1-0.4,0.2-0.7,0.3-0.8c0.1-0.3,0.2-0.5,0.3-0.8l1.8-4.8h2.5
		l-3.7,9.4H275.8z"/>
	<path class="st1" d="M284.1,42.1h2.4c-0.8,1.6-1.2,3.3-1.2,4.9c0,1,0.2,1.7,0.5,2.1c0.3,0.4,0.8,0.6,1.2,0.6c0.3,0,0.6-0.1,0.9-0.3
		c0.2-0.2,0.4-0.4,0.5-0.7c0.1-0.3,0.1-0.7,0.1-1.4v-2.8h2.5v2.8c0,0.6,0,1,0.1,1.3c0.1,0.3,0.2,0.6,0.5,0.8
		c0.2,0.2,0.5,0.3,0.9,0.3c0.5,0,0.9-0.2,1.2-0.6c0.3-0.4,0.5-1.1,0.5-2.1c0-0.7-0.1-1.5-0.3-2.4c-0.2-0.9-0.5-1.7-0.9-2.5h2.4
		c0.3,0.5,0.6,1.3,0.9,2.2c0.3,0.9,0.4,1.8,0.4,2.6c0,1.4-0.4,2.5-1.1,3.4c-0.7,0.9-1.7,1.3-2.9,1.3c-1.4,0-2.4-0.7-3-2
		c-0.6,1.3-1.6,2-3,2c-1.2,0-2.2-0.4-2.9-1.3c-0.7-0.9-1.1-2-1.1-3.4c0-0.8,0.1-1.7,0.4-2.6C283.4,43.4,283.7,42.6,284.1,42.1z"/>
	<path class="st1" d="M309.3,42.1v2.1H307c0.5,0.8,0.7,1.6,0.7,2.6c0,1.4-0.4,2.5-1.3,3.5c-0.9,1-2.1,1.4-3.5,1.4
		c-1.4,0-2.6-0.4-3.5-1.3c-0.9-0.9-1.3-2.1-1.3-3.5c0-1.4,0.4-2.6,1.3-3.5c0.9-0.9,2.1-1.4,3.6-1.4c0.4,0,1,0.1,1.5,0.2H309.3z
		 M300.6,46.8c0,0.9,0.2,1.6,0.6,2.1c0.4,0.5,1,0.8,1.6,0.8c0.6,0,1.2-0.2,1.6-0.7c0.4-0.5,0.7-1.2,0.7-2.2c0-0.8-0.2-1.5-0.6-2.1
		c-0.4-0.5-1-0.8-1.7-0.8c-0.7,0-1.2,0.3-1.7,0.8C300.8,45.2,300.6,45.9,300.6,46.8z"/>
	<path class="st1" d="M319.5,55H317v-8.3c0-0.8,0-1.4-0.1-1.8c-0.1-0.3-0.2-0.6-0.5-0.8c-0.3-0.2-0.6-0.3-1-0.3
		c-0.5,0-0.9,0.1-1.2,0.4c-0.3,0.3-0.6,0.6-0.7,1c-0.1,0.4-0.2,1.1-0.2,2v4.2H311v-9.4h2.3v1.4c0.8-1.1,1.8-1.6,3.1-1.6
		c0.7,0,1.3,0.2,1.8,0.5c0.5,0.3,0.8,0.7,1,1.2c0.2,0.5,0.3,1.2,0.3,2.1V55z"/>
	<path class="st1" d="M329.8,42.3l-0.5,2.1c-0.7-0.2-1.3-0.3-1.9-0.3c-1.1,0-2,0.3-2.7,0.9c-0.7,0.6-1.1,1.3-1.1,2.1
		c0,0.5,0.2,1,0.6,1.3c0.4,0.3,1.1,0.6,2,0.8c1.2,0.3,2,0.7,2.5,1.2c0.5,0.5,0.8,1.1,0.8,2c0,0.9-0.4,1.6-1.1,2.2
		c-0.7,0.5-1.7,0.8-2.8,0.8c-0.3,0-0.9,0-1.7-0.1l0.5-2.1c0.5,0.1,0.9,0.2,1.2,0.2c0.4,0,0.7-0.1,0.9-0.2c0.2-0.2,0.4-0.4,0.4-0.7
		c0-0.3-0.1-0.5-0.3-0.6c-0.2-0.2-0.6-0.3-1.2-0.4c-1.5-0.3-2.5-0.8-3.1-1.5c-0.6-0.7-1-1.5-1-2.5c0-0.9,0.2-1.8,0.7-2.6
		c0.5-0.8,1.2-1.5,2.1-2c0.9-0.5,1.9-0.7,3-0.7C328.3,41.9,329.1,42,329.8,42.3z"/>
</g>
</svg>
